<?xml version="1.0" standalone="no"?>
<!DOCTYPE svg PUBLIC "-//W3C//DTD SVG 20010904//EN"
 "http://www.w3.org/TR/2001/REC-SVG-20010904/DTD/svg10.dtd">
<svg version="1.0" xmlns="http://www.w3.org/2000/svg"
 width="100.000000pt" height="100.000000pt" viewBox="0 0 100.000000 100.000000"
 preserveAspectRatio="xMidYMid meet">

<g transform="translate(0.000000,100.000000) scale(0.100000,-0.100000)"
fill="#000000" stroke="none">
<path d="M386 944 c-172 -42 -311 -195 -339 -374 -38 -247 132 -480 380 -522
246 -41 483 130 525 379 54 324 -243 595 -566 517z m219 -39 c312 -81 418
-473 191 -701 -241 -240 -651 -107 -709 230 -50 295 226 546 518 471z"/>
<path d="M445 610 l-110 -110 112 -112 c90 -89 115 -110 125 -100 10 10 -8 33
-87 112 l-100 100 99 99 c86 86 108 121 78 121 -4 0 -57 -50 -117 -110z"/>
</g>
</svg>
