<?xml version="1.0" standalone="no"?>
<!DOCTYPE svg PUBLIC "-//W3C//DTD SVG 20010904//EN"
 "http://www.w3.org/TR/2001/REC-SVG-20010904/DTD/svg10.dtd">
<svg version="1.0" xmlns="http://www.w3.org/2000/svg"
 width="100.000000pt" height="100.000000pt" viewBox="0 0 100.000000 100.000000"
 preserveAspectRatio="xMidYMid meet">

<g transform="translate(0.000000,100.000000) scale(0.100000,-0.100000)"
fill="#000000" stroke="none">
<path d="M386 944 c-170 -41 -308 -192 -338 -371 -51 -305 219 -576 524 -525
251 42 421 277 380 525 -45 267 -302 435 -566 371z m219 -39 c312 -81 418
-473 191 -701 -241 -240 -651 -107 -709 230 -50 295 226 546 518 471z"/>
<path d="M424 709 c-4 -6 36 -53 92 -110 l99 -99 -100 -100 c-79 -79 -97 -102
-87 -112 10 -10 35 11 125 100 l112 112 -110 110 c-60 60 -113 110 -117 110
-4 0 -10 -5 -14 -11z"/>
</g>
</svg>
